<svg width="174" height="403" viewBox="0 0 174 403" fill="none" xmlns="http://www.w3.org/2000/svg">
<g style="mix-blend-mode:screen" filter="url(#filter0_d_1_6545)">
<path d="M-3.81835 398.13L-4.20831 398.037H-4.394H-4.65397H-4.8211L-5.19249 398.26L-5.32247 398.371L-5.4896 398.575V398.724C-5.56797 398.929 -5.59866 399.149 -5.57936 399.368C-5.56006 399.587 -5.49126 399.798 -5.37818 399.986C-5.27678 400.17 -5.13585 400.328 -4.96562 400.45C-4.79539 400.572 -4.60013 400.655 -4.394 400.692H-4.07832H-3.81835H-3.65122L-3.31697 400.469L-3.18699 400.339L-3.03843 400.116V399.949L-2.94559 399.559V399.374V399.095V398.909L-3.18699 398.538L-3.31697 398.408L-3.53981 398.26L-3.81835 398.13Z" fill="#F9E59F"/>
</g>
<g style="mix-blend-mode:screen" filter="url(#filter1_d_1_6545)">
<path d="M87.1718 405.093L87.3946 405H87.5246C87.842 404.747 88.0484 404.381 88.1002 403.979C88.1365 403.632 88.0453 403.285 87.8436 403.001C87.6419 402.717 87.3436 402.517 87.0046 402.437H86.6147H86.3547H86.2433H86.0947H86.0019C85.8493 402.551 85.7225 402.696 85.6297 402.863C85.5369 403.029 85.4802 403.213 85.4634 403.403C85.4404 403.672 85.4883 403.942 85.6024 404.186C85.7164 404.431 85.8926 404.641 86.1133 404.796H86.2619H86.4661H86.6332H87.1718V405.093Z" fill="#DFCBB3"/>
</g>
<g style="mix-blend-mode:screen" filter="url(#filter2_d_1_6545)">
<path d="M24.9457 399.299H25.0757H25.28H25.7814H25.8928C26.1226 399.27 26.3406 399.181 26.5241 399.039L26.6727 398.891L26.8027 398.649V398.463V397.962V397.814C26.7666 397.574 26.6778 397.346 26.5427 397.145L26.3941 397.015L26.1342 396.867H25.9485H25.4471H25.2243L25.0757 396.737L24.7229 396.514H24.5372H24.2772H24.073C23.6653 396.601 23.299 396.824 23.0331 397.145L22.8288 397.405V397.554V397.776V397.944V398.333V398.501L22.9217 398.705V398.853C23.0781 399.041 23.2741 399.192 23.4956 399.294C23.7172 399.397 23.9587 399.449 24.203 399.448C24.4593 399.465 24.7157 399.414 24.9457 399.299Z" fill="#D59C38"/>
</g>
<g style="mix-blend-mode:screen" filter="url(#filter3_d_1_6545)">
<path d="M30.4608 363.386L30.2008 363.887V364.147V364.537L30.2937 364.797L30.4236 365.002V365.132V365.354C30.5943 365.775 30.8769 366.141 31.2407 366.413L31.5192 366.506H31.9463H32.2434L32.7263 366.171L32.9119 365.911L33.0419 365.503V365.206V364.927C33.0419 364.742 32.9305 364.537 32.8562 364.333C32.736 363.997 32.5215 363.702 32.2382 363.485C31.955 363.268 31.6151 363.137 31.2593 363.107H30.9807L30.6465 363.293L30.4608 363.386Z" fill="#662B02"/>
</g>
<g style="mix-blend-mode:screen" filter="url(#filter4_d_1_6545)">
<path d="M15.7353 403.459L15.8467 403.719V403.83V403.96L15.9396 404.053L16.181 404.257H16.3481H16.4781C16.7294 404.307 16.9895 404.289 17.2312 404.204C17.473 404.119 17.6875 403.971 17.8522 403.774C18.0114 403.566 18.1153 403.32 18.1543 403.06C18.1932 402.8 18.166 402.535 18.0751 402.289C17.9964 402.077 17.87 401.887 17.7057 401.732C17.5415 401.578 17.3438 401.463 17.128 401.397C16.9413 401.343 16.7449 401.329 16.5525 401.358C16.36 401.387 16.1762 401.457 16.0139 401.565C15.7302 401.782 15.5425 402.102 15.4905 402.455C15.4385 402.809 15.5263 403.169 15.7353 403.459Z" fill="#F9F6D2"/>
</g>
<g style="mix-blend-mode:screen" filter="url(#filter5_d_1_6545)">
<path d="M63.8672 374.806V374.602V374.323V374.119V373.952V373.84V373.618L63.7186 373.135L63.6072 372.949L63.3658 372.726L63.1801 372.596C62.9932 372.521 62.7921 372.489 62.5911 372.5C62.3901 372.512 62.1941 372.567 62.0169 372.663C61.8398 372.759 61.6858 372.892 61.5659 373.054C61.4461 373.216 61.3632 373.402 61.3231 373.599L61.4717 373.915L61.3603 374.156L61.5831 374.695V374.917C61.7094 375.142 61.897 375.326 62.1239 375.447C62.3508 375.569 62.6076 375.623 62.8644 375.604C63.0876 375.573 63.2983 375.482 63.4746 375.342C63.651 375.202 63.7865 375.016 63.8672 374.806Z" fill="#EADECF"/>
</g>
<g style="mix-blend-mode:screen" filter="url(#filter6_d_1_6545)">
<path d="M29.7553 372.021H29.9224L30.1638 371.873L30.3123 371.743L30.5537 371.39V371.223V370.944V370.758C30.5306 370.533 30.4567 370.316 30.3378 370.123C30.2188 369.93 30.0577 369.766 29.8667 369.644H29.7367H29.4024H29.0496C28.7308 369.747 28.4632 369.968 28.3011 370.261C28.139 370.554 28.0946 370.898 28.1769 371.223C28.2975 371.525 28.5245 371.773 28.8151 371.92C29.1058 372.067 29.4401 372.103 29.7553 372.021Z" fill="#C47F1E"/>
</g>
<g style="mix-blend-mode:screen" filter="url(#filter7_d_1_6545)">
<path d="M0.508436 405.613L0.638421 405.836L0.879823 406.096L1.10266 406.226L1.6226 406.356H1.864L2.16111 406.263L2.2911 406.374L2.56964 406.523H2.79247H3.40526C3.70092 406.506 3.98515 406.403 4.22232 406.226C4.44877 406.034 4.60077 405.77 4.65169 405.478C4.70261 405.186 4.64922 404.885 4.50086 404.629L4.38944 404.499L4.22232 404.332L4.07376 404.239L3.70237 404.072H3.55382H3.38669V403.756C3.39134 403.491 3.33905 403.227 3.23334 402.984C3.12763 402.74 2.97097 402.522 2.7739 402.345L2.5325 402.233H2.14254H1.88257L1.3812 402.456L1.15837 402.623L0.954101 402.92L0.861255 403.18C0.826941 403.366 0.770844 403.546 0.69413 403.719C0.432747 404.314 0.36771 404.978 0.508436 405.613Z" fill="#E7B851"/>
</g>
<g style="mix-blend-mode:screen" filter="url(#filter8_d_1_6545)">
<path d="M17.908 381.138V381.38V381.565C18.0206 381.835 18.2013 382.071 18.4324 382.25C18.6635 382.429 18.9371 382.545 19.2264 382.587C19.4772 382.627 19.7341 382.608 19.9761 382.531C20.218 382.453 20.4384 382.32 20.6191 382.141C20.8665 381.907 21.0506 381.614 21.1545 381.289C21.2584 380.964 21.2786 380.619 21.2133 380.284C21.138 379.987 20.9848 379.714 20.7694 379.496C20.554 379.277 20.2842 379.12 19.9877 379.04H19.8206H19.5606H19.3749L19.0036 379.226H18.855L18.6693 379.43V379.541L18.5393 379.709C18.2515 380.019 18.0582 380.406 17.9822 380.823L17.908 381.138Z" fill="#EADECF"/>
</g>
<g style="mix-blend-mode:screen" filter="url(#filter9_d_1_6545)">
<path d="M10.3502 378.26C10.1384 378.308 9.93856 378.399 9.76296 378.526C9.58736 378.654 9.43964 378.816 9.32884 379.003V379.189V379.449V379.653L9.44026 380.061V380.228L9.58881 380.433L9.7188 380.563C9.93789 380.706 10.1847 380.8 10.443 380.841L10.7401 380.953H10.9629H11.4458H11.6686L11.9286 380.786L12.0957 380.618C12.3055 380.288 12.3765 379.888 12.293 379.505C12.2095 379.123 11.9785 378.789 11.65 378.576C11.4679 378.434 11.2579 378.333 11.0339 378.279C10.8098 378.224 10.5768 378.218 10.3502 378.26Z" fill="#793903"/>
</g>
<g style="mix-blend-mode:screen" filter="url(#filter10_d_1_6545)">
<path d="M15.3268 383.069L15.4568 382.865V382.717C15.5536 382.326 15.4936 381.912 15.2897 381.565C15.1132 381.249 14.8206 381.015 14.474 380.911C14.1274 380.807 13.754 380.842 13.4327 381.008H13.3027L13.117 381.212V381.305V381.454V381.547C13.0245 381.924 13.0776 382.321 13.2656 382.661C13.4153 382.887 13.6197 383.072 13.8599 383.199C14.1001 383.326 14.3683 383.39 14.6397 383.385H14.7883H15.0111H15.1597L15.4568 383.144L15.3268 383.069Z" fill="#C47F1E"/>
</g>
<g style="mix-blend-mode:screen" filter="url(#filter11_d_1_6545)">
<path d="M41.8253 313.769L41.9738 313.528V313.416V313.249V312.692V312.507V312.395C41.862 312.166 41.6876 311.973 41.4708 311.838C41.2539 311.703 41.0035 311.632 40.7483 311.634C40.4852 311.631 40.2263 311.699 39.9979 311.829C39.7695 311.96 39.5799 312.149 39.4484 312.377C39.3296 312.57 39.2591 312.789 39.243 313.015C39.2268 313.241 39.2654 313.468 39.3556 313.676C39.4228 313.856 39.5321 314.018 39.6742 314.147C39.8163 314.276 39.9872 314.369 40.1726 314.419C40.4799 314.532 40.8178 314.528 41.1224 314.408C41.427 314.288 41.6771 314.061 41.8253 313.769Z" fill="#9F5504"/>
</g>
<g style="mix-blend-mode:screen" filter="url(#filter12_d_1_6545)">
<path d="M-0.550087 326.879L-0.401532 327.009L-0.141561 327.139H0.0441337H0.248397L0.452661 327.232H0.954034H1.25114H1.56682L1.77109 327.121C1.9147 326.99 2.02945 326.831 2.10797 326.653C2.18649 326.476 2.22705 326.284 2.22705 326.09C2.22705 325.896 2.18649 325.704 2.10797 325.526C2.02945 325.349 1.9147 325.19 1.77109 325.059H1.41827L1.26971 324.855H0.675494L0.489799 324.744C0.235201 324.734 -0.0167024 324.799 -0.2346 324.931C-0.452497 325.063 -0.626779 325.256 -0.735782 325.486C-0.848762 325.71 -0.891483 325.963 -0.858347 326.211C-0.825211 326.46 -0.717763 326.693 -0.550087 326.879Z" fill="#E7D8C6"/>
</g>
<g style="mix-blend-mode:screen" filter="url(#filter13_d_1_6545)">
<path d="M55.4924 334.715V335.105V335.291V335.551V335.718L55.7153 336.071L55.8453 336.201L56.0495 336.35H56.2167C56.425 336.411 56.6444 336.427 56.8594 336.395C57.0743 336.363 57.2796 336.284 57.4608 336.164C57.6319 336.043 57.7762 335.889 57.8848 335.71C57.9935 335.531 58.0641 335.331 58.0922 335.124V334.808V334.548L57.9993 334.381L57.7579 334.065L57.6094 333.936L57.3865 333.806H57.2194H56.8109H56.6252H56.3652H56.1795L55.8267 334.047L55.6039 334.307L55.4739 334.53L55.4924 334.715Z" fill="#431B06"/>
</g>
<g style="mix-blend-mode:screen" filter="url(#filter14_d_1_6545)">
<path d="M12.3555 369.774L12.7826 369.422L12.9126 369.254L13.0426 368.976V368.79C13.0622 368.569 13.0324 368.345 12.9554 368.137C12.8783 367.928 12.7559 367.739 12.5969 367.583C12.4475 367.449 12.2695 367.351 12.0764 367.297C11.8833 367.242 11.6803 367.232 11.4828 367.268H11.3342L11.13 367.379H11L10.74 367.658L10.6286 367.787V368.01V368.177C10.5934 368.501 10.6652 368.826 10.8329 369.105C11.0006 369.383 11.255 369.599 11.5571 369.719H11.817H12.1884L12.3555 369.774Z" fill="#9F5504"/>
</g>
<g style="mix-blend-mode:screen" filter="url(#filter15_d_1_6545)">
<path d="M1.54827 396.514L1.65969 396.644H1.75253L2.03107 396.848H2.14249H2.29105H2.42103C2.67268 396.881 2.92852 396.837 3.15424 396.721C3.37995 396.605 3.56472 396.422 3.68375 396.198C3.83037 395.938 3.8963 395.64 3.87316 395.343C3.85001 395.045 3.73883 394.761 3.55377 394.527L3.36807 394.378L3.05239 394.23H2.81099H2.30962H2.06821L1.78967 394.415L1.62255 394.583C1.46576 394.804 1.36958 395.063 1.34352 395.334C1.31747 395.604 1.36244 395.876 1.47399 396.124L1.54827 396.514Z" fill="#F9DD85"/>
</g>
<g style="mix-blend-mode:screen" filter="url(#filter16_d_1_6545)">
<path d="M34.4532 315.737V315.477V315.273C34.3817 314.948 34.1868 314.664 33.9096 314.48C33.6323 314.297 33.2946 314.228 32.9677 314.289H32.8005L32.5963 314.4L32.4663 314.512L32.3177 314.623L32.132 314.809V314.957L31.9835 315.292V315.44V315.83C32.027 316.022 32.1087 316.203 32.2235 316.362C32.3383 316.522 32.484 316.656 32.652 316.759C32.824 316.852 33.0136 316.908 33.2086 316.924C33.4036 316.94 33.5998 316.915 33.7847 316.851L34.1004 316.721L34.249 316.61L34.4347 316.406V316.239L34.5646 315.83L34.4532 315.737Z" fill="#E3D1BD"/>
</g>
<g style="mix-blend-mode:screen" filter="url(#filter17_d_1_6545)">
<path d="M-4.78392 354.733L-4.54252 354.9L-4.17113 355.012H-3.91116L-3.35408 354.863L-3.13124 354.733L-2.87127 354.455L-2.75985 354.213V354.102C-2.7008 353.912 -2.68107 353.711 -2.70188 353.513C-2.72269 353.315 -2.78359 353.124 -2.88088 352.95C-2.97817 352.776 -3.10981 352.624 -3.26778 352.503C-3.42575 352.382 -3.60675 352.294 -3.79974 352.245H-3.96687H-4.20827H-4.37539L-4.72821 352.412L-4.87677 352.523L-5.04389 352.709L-5.15531 352.839V352.932C-5.26938 353.237 -5.29504 353.567 -5.22933 353.886C-5.16363 354.205 -5.00923 354.498 -4.78392 354.733Z" fill="#F1E9E1"/>
</g>
<g style="mix-blend-mode:screen" filter="url(#filter18_d_1_6545)">
<path d="M1.2326 314.531L1.06547 314.661L0.879776 314.884L0.768361 315.069C0.643795 315.246 0.566443 315.451 0.543688 315.665C0.520932 315.88 0.553531 316.097 0.638374 316.295L0.749791 316.481L0.972623 316.685L1.13975 316.778L1.65969 316.963H1.75254C2.06164 316.977 2.36712 316.893 2.6253 316.722L2.77386 316.611L2.88527 316.443L3.01526 316.184V315.998V315.385V315.144L2.90384 314.958C2.72054 314.701 2.45219 314.517 2.14631 314.439C1.84043 314.361 1.51675 314.393 1.2326 314.531Z" fill="#D6BDA1"/>
</g>
<g style="mix-blend-mode:screen" filter="url(#filter19_d_1_6545)">
<path d="M-2.14716 346.154H-2.62996C-2.8724 346.253 -3.09319 346.398 -3.27989 346.581C-3.53468 346.726 -3.72911 346.958 -3.82791 347.234C-3.92671 347.51 -3.92334 347.812 -3.8184 348.085C-3.68341 348.451 -3.41921 348.755 -3.07563 348.94C-2.76647 349.068 -2.41918 349.068 -2.11002 348.94L-1.83148 348.68V348.513H-1.72006L-1.5158 348.345L-1.40438 348.197L-1.21869 347.844V347.751C-1.12787 347.547 -1.08956 347.324 -1.10727 347.101V346.86L-1.31153 346.581L-1.49723 346.414L-1.98003 346.173L-2.14716 346.154Z" fill="#3B1703"/>
</g>
<g style="mix-blend-mode:screen" filter="url(#filter20_d_1_6545)">
<path d="M27.7497 362.161H27.6011H27.3783H26.5241H26.3198L26.0599 362.291L25.9113 362.402C25.6856 362.65 25.5414 362.961 25.4983 363.293C25.4551 363.625 25.515 363.962 25.6699 364.259L25.8928 364.389L26.227 364.575L26.4498 364.76H27.0255H27.2855L27.5826 364.575L27.3969 364.278L27.7497 364.389L27.5269 364.203H27.434L27.824 364.445C27.9896 364.304 28.1209 364.127 28.2078 363.927C28.2947 363.728 28.3349 363.511 28.3253 363.294C28.34 363.07 28.2943 362.847 28.193 362.648C28.0917 362.449 27.9386 362.28 27.7497 362.161Z" fill="#F9D46B"/>
</g>
<g style="mix-blend-mode:screen" filter="url(#filter21_d_1_6545)">
<path d="M2.75536 278.172V277.93V277.726C2.61699 277.425 2.36886 277.188 2.06168 277.064C1.7545 276.94 1.41146 276.937 1.10268 277.058L0.954127 277.15L0.768434 277.299L0.657017 277.429L0.527031 277.559L0.378476 277.782V277.949V278.302V278.45V278.673V278.822C0.455608 279.006 0.57199 279.171 0.719514 279.306C0.867038 279.441 1.04216 279.542 1.23267 279.602C1.41651 279.663 1.61168 279.684 1.80426 279.661C1.99685 279.639 2.1821 279.574 2.34683 279.472L2.64394 279.286L2.75536 279.137L2.88535 278.915V278.729V278.32L2.75536 278.172Z" fill="#F9E59F"/>
</g>
<g style="mix-blend-mode:screen" filter="url(#filter22_d_1_6545)">
<path d="M-5.52662 293.733L-5.09952 293.937H-4.9324H-4.7467V293.845L-4.59815 293.956C-4.25661 293.976 -3.91772 293.885 -3.63254 293.696C-3.41132 293.531 -3.24751 293.3 -3.16422 293.037C-3.08093 292.774 -3.08236 292.491 -3.1683 292.229V292.062L-3.33543 291.858L-3.48398 291.728L-3.85537 291.523H-3.98536H-4.18962H-4.31961C-4.71052 291.466 -5.10872 291.559 -5.43377 291.783C-5.65909 291.942 -5.82996 292.166 -5.92303 292.425C-6.01609 292.685 -6.02681 292.966 -5.95371 293.232L-5.8423 293.417L-5.63803 293.659L-5.52662 293.733Z" fill="#F9F6D2"/>
</g>
<g style="mix-blend-mode:screen" filter="url(#filter23_d_1_6545)">
<path d="M16.2924 319.043L16.6081 319.191H16.9795H17.1652L17.7037 319.024L17.9265 318.857L18.1679 318.56L18.2793 318.319V318.226C18.3374 318.029 18.3537 317.823 18.3271 317.62C18.3005 317.416 18.2316 317.221 18.1249 317.046C18.0181 316.871 17.876 316.72 17.7075 316.604C17.539 316.487 17.3479 316.407 17.1466 316.369H16.9609H16.7195H16.5524L16.2181 316.555L16.0696 316.666L15.9024 316.852V317.019C15.7285 317.35 15.6723 317.731 15.7432 318.099C15.814 318.467 16.0077 318.8 16.2924 319.043Z" fill="#EADECF"/>
</g>
<g style="mix-blend-mode:screen" filter="url(#filter24_d_1_6545)">
<path d="M6.02364 309.74L6.13506 309.535V309.368C6.19191 308.972 6.09925 308.568 5.87508 308.236C5.67216 307.949 5.37065 307.746 5.02812 307.668C4.6856 307.589 4.32605 307.639 4.01814 307.808L3.90673 307.92L3.60962 308.31V308.458V308.57C3.54681 308.947 3.63341 309.333 3.85102 309.647C4.00708 309.87 4.22078 310.046 4.46933 310.158C4.71787 310.269 4.99194 310.311 5.26229 310.278H5.42942L5.46656 310.167L5.59654 310.074L5.87508 309.833L6.02364 309.74Z" fill="#E7D8C6"/>
</g>
<path d="M159.955 804.34L192.782 771.514L-480.816 97.9214L-513.642 130.748L159.955 804.34Z" fill="url(#paint0_linear_1_6545)"/>
<path d="M186.877 777.413L192.786 771.504L-480.812 97.9116L-486.721 103.82L186.877 777.413Z" fill="url(#paint1_linear_1_6545)"/>
<g filter="url(#filter25_d_1_6545)">
<path d="M343.592 688.423L345.64 686.375L-370.316 -29.5769L-372.365 -27.5286L343.592 688.423Z" fill="url(#paint2_linear_1_6545)"/>
</g>
<path d="M247.02 788.685L249.069 786.636L-466.888 70.6848L-468.936 72.7331L247.02 788.685Z" fill="url(#paint3_linear_1_6545)"/>
<path d="M130.957 851.831L133.005 849.783L-582.952 133.831L-585 135.879L130.957 851.831Z" fill="url(#paint4_linear_1_6545)"/>
<g filter="url(#filter26_d_1_6545)">
<path d="M379.788 689.677L381.836 687.628L-334.12 -28.3233L-336.169 -26.2749L379.788 689.677Z" fill="url(#paint5_linear_1_6545)"/>
</g>
<g filter="url(#filter27_d_1_6545)">
<path d="M454.196 688L456.245 685.951L-259.712 -30.0003L-261.76 -27.9519L454.196 688Z" fill="url(#paint6_linear_1_6545)"/>
</g>
<path d="M204.814 836.494L206.863 834.446L-509.094 118.494L-511.142 120.542L204.814 836.494Z" fill="url(#paint7_linear_1_6545)"/>
<g style="mix-blend-mode:screen" filter="url(#filter28_d_1_6545)">
<path d="M-118.15 378.557C-205.166 291.542 -269.825 215.148 -262.583 207.869C-255.341 200.589 -178.909 265.266 -91.8931 352.282C-4.87682 439.297 59.8004 515.692 52.5398 522.971C45.2792 530.25 -31.134 465.573 -118.15 378.557Z" fill="url(#paint8_radial_1_6545)"/>
</g>
<g style="mix-blend-mode:screen" filter="url(#filter30_d_1_6545)">
<path d="M-94.8084 259.528C-143.683 210.617 -180.042 167.647 -175.957 163.469C-171.871 159.291 -128.92 195.836 -79.9529 244.766C-30.9853 293.696 5.28072 336.647 1.19545 340.732C-2.88982 344.817 -45.8409 308.458 -94.8084 259.528Z" fill="url(#paint10_radial_1_6545)"/>
</g>
<defs>
<filter id="filter0_d_1_6545" x="-9.58497" y="398.037" width="10.6394" height="10.6553" filterUnits="userSpaceOnUse" color-interpolation-filters="sRGB">
<feFlood flood-opacity="0" result="BackgroundImageFix"/>
<feColorMatrix in="SourceAlpha" type="matrix" values="0 0 0 0 0 0 0 0 0 0 0 0 0 0 0 0 0 0 127 0" result="hardAlpha"/>
<feOffset dy="4"/>
<feGaussianBlur stdDeviation="2"/>
<feComposite in2="hardAlpha" operator="out"/>
<feColorMatrix type="matrix" values="0 0 0 0 0 0 0 0 0 0 0 0 0 0 0 0 0 0 0.25 0"/>
<feBlend mode="normal" in2="BackgroundImageFix" result="effect1_dropShadow_1_6545"/>
<feBlend mode="normal" in="SourceGraphic" in2="effect1_dropShadow_1_6545" result="shape"/>
</filter>
<filter id="filter1_d_1_6545" x="81.4578" y="402.438" width="10.6503" height="10.6553" filterUnits="userSpaceOnUse" color-interpolation-filters="sRGB">
<feFlood flood-opacity="0" result="BackgroundImageFix"/>
<feColorMatrix in="SourceAlpha" type="matrix" values="0 0 0 0 0 0 0 0 0 0 0 0 0 0 0 0 0 0 127 0" result="hardAlpha"/>
<feOffset dy="4"/>
<feGaussianBlur stdDeviation="2"/>
<feComposite in2="hardAlpha" operator="out"/>
<feColorMatrix type="matrix" values="0 0 0 0 0 0 0 0 0 0 0 0 0 0 0 0 0 0 0.25 0"/>
<feBlend mode="normal" in2="BackgroundImageFix" result="effect1_dropShadow_1_6545"/>
<feBlend mode="normal" in="SourceGraphic" in2="effect1_dropShadow_1_6545" result="shape"/>
</filter>
<filter id="filter2_d_1_6545" x="18.8288" y="396.514" width="11.9739" height="10.9373" filterUnits="userSpaceOnUse" color-interpolation-filters="sRGB">
<feFlood flood-opacity="0" result="BackgroundImageFix"/>
<feColorMatrix in="SourceAlpha" type="matrix" values="0 0 0 0 0 0 0 0 0 0 0 0 0 0 0 0 0 0 127 0" result="hardAlpha"/>
<feOffset dy="4"/>
<feGaussianBlur stdDeviation="2"/>
<feComposite in2="hardAlpha" operator="out"/>
<feColorMatrix type="matrix" values="0 0 0 0 0 0 0 0 0 0 0 0 0 0 0 0 0 0 0.25 0"/>
<feBlend mode="normal" in2="BackgroundImageFix" result="effect1_dropShadow_1_6545"/>
<feBlend mode="normal" in="SourceGraphic" in2="effect1_dropShadow_1_6545" result="shape"/>
</filter>
<filter id="filter3_d_1_6545" x="26.2008" y="363.107" width="10.8411" height="11.3982" filterUnits="userSpaceOnUse" color-interpolation-filters="sRGB">
<feFlood flood-opacity="0" result="BackgroundImageFix"/>
<feColorMatrix in="SourceAlpha" type="matrix" values="0 0 0 0 0 0 0 0 0 0 0 0 0 0 0 0 0 0 127 0" result="hardAlpha"/>
<feOffset dy="4"/>
<feGaussianBlur stdDeviation="2"/>
<feComposite in2="hardAlpha" operator="out"/>
<feColorMatrix type="matrix" values="0 0 0 0 0 0 0 0 0 0 0 0 0 0 0 0 0 0 0.25 0"/>
<feBlend mode="normal" in2="BackgroundImageFix" result="effect1_dropShadow_1_6545"/>
<feBlend mode="normal" in="SourceGraphic" in2="effect1_dropShadow_1_6545" result="shape"/>
</filter>
<filter id="filter4_d_1_6545" x="11.4758" y="401.343" width="10.6957" height="10.9414" filterUnits="userSpaceOnUse" color-interpolation-filters="sRGB">
<feFlood flood-opacity="0" result="BackgroundImageFix"/>
<feColorMatrix in="SourceAlpha" type="matrix" values="0 0 0 0 0 0 0 0 0 0 0 0 0 0 0 0 0 0 127 0" result="hardAlpha"/>
<feOffset dy="4"/>
<feGaussianBlur stdDeviation="2"/>
<feComposite in2="hardAlpha" operator="out"/>
<feColorMatrix type="matrix" values="0 0 0 0 0 0 0 0 0 0 0 0 0 0 0 0 0 0 0.25 0"/>
<feBlend mode="normal" in2="BackgroundImageFix" result="effect1_dropShadow_1_6545"/>
<feBlend mode="normal" in="SourceGraphic" in2="effect1_dropShadow_1_6545" result="shape"/>
</filter>
<filter id="filter5_d_1_6545" x="57.3231" y="372.498" width="10.544" height="11.1101" filterUnits="userSpaceOnUse" color-interpolation-filters="sRGB">
<feFlood flood-opacity="0" result="BackgroundImageFix"/>
<feColorMatrix in="SourceAlpha" type="matrix" values="0 0 0 0 0 0 0 0 0 0 0 0 0 0 0 0 0 0 127 0" result="hardAlpha"/>
<feOffset dy="4"/>
<feGaussianBlur stdDeviation="2"/>
<feComposite in2="hardAlpha" operator="out"/>
<feColorMatrix type="matrix" values="0 0 0 0 0 0 0 0 0 0 0 0 0 0 0 0 0 0 0.25 0"/>
<feBlend mode="normal" in2="BackgroundImageFix" result="effect1_dropShadow_1_6545"/>
<feBlend mode="normal" in="SourceGraphic" in2="effect1_dropShadow_1_6545" result="shape"/>
</filter>
<filter id="filter6_d_1_6545" x="24.1365" y="369.644" width="10.4173" height="10.4199" filterUnits="userSpaceOnUse" color-interpolation-filters="sRGB">
<feFlood flood-opacity="0" result="BackgroundImageFix"/>
<feColorMatrix in="SourceAlpha" type="matrix" values="0 0 0 0 0 0 0 0 0 0 0 0 0 0 0 0 0 0 127 0" result="hardAlpha"/>
<feOffset dy="4"/>
<feGaussianBlur stdDeviation="2"/>
<feComposite in2="hardAlpha" operator="out"/>
<feColorMatrix type="matrix" values="0 0 0 0 0 0 0 0 0 0 0 0 0 0 0 0 0 0 0.25 0"/>
<feBlend mode="normal" in2="BackgroundImageFix" result="effect1_dropShadow_1_6545"/>
<feBlend mode="normal" in="SourceGraphic" in2="effect1_dropShadow_1_6545" result="shape"/>
</filter>
<filter id="filter7_d_1_6545" x="-3.56413" y="402.233" width="12.2346" height="12.2896" filterUnits="userSpaceOnUse" color-interpolation-filters="sRGB">
<feFlood flood-opacity="0" result="BackgroundImageFix"/>
<feColorMatrix in="SourceAlpha" type="matrix" values="0 0 0 0 0 0 0 0 0 0 0 0 0 0 0 0 0 0 127 0" result="hardAlpha"/>
<feOffset dy="4"/>
<feGaussianBlur stdDeviation="2"/>
<feComposite in2="hardAlpha" operator="out"/>
<feColorMatrix type="matrix" values="0 0 0 0 0 0 0 0 0 0 0 0 0 0 0 0 0 0 0.25 0"/>
<feBlend mode="normal" in2="BackgroundImageFix" result="effect1_dropShadow_1_6545"/>
<feBlend mode="normal" in="SourceGraphic" in2="effect1_dropShadow_1_6545" result="shape"/>
</filter>
<filter id="filter8_d_1_6545" x="13.908" y="379.04" width="11.3429" height="11.5674" filterUnits="userSpaceOnUse" color-interpolation-filters="sRGB">
<feFlood flood-opacity="0" result="BackgroundImageFix"/>
<feColorMatrix in="SourceAlpha" type="matrix" values="0 0 0 0 0 0 0 0 0 0 0 0 0 0 0 0 0 0 127 0" result="hardAlpha"/>
<feOffset dy="4"/>
<feGaussianBlur stdDeviation="2"/>
<feComposite in2="hardAlpha" operator="out"/>
<feColorMatrix type="matrix" values="0 0 0 0 0 0 0 0 0 0 0 0 0 0 0 0 0 0 0.25 0"/>
<feBlend mode="normal" in2="BackgroundImageFix" result="effect1_dropShadow_1_6545"/>
<feBlend mode="normal" in="SourceGraphic" in2="effect1_dropShadow_1_6545" result="shape"/>
</filter>
<filter id="filter9_d_1_6545" x="5.32884" y="378.233" width="10.9983" height="10.72" filterUnits="userSpaceOnUse" color-interpolation-filters="sRGB">
<feFlood flood-opacity="0" result="BackgroundImageFix"/>
<feColorMatrix in="SourceAlpha" type="matrix" values="0 0 0 0 0 0 0 0 0 0 0 0 0 0 0 0 0 0 127 0" result="hardAlpha"/>
<feOffset dy="4"/>
<feGaussianBlur stdDeviation="2"/>
<feComposite in2="hardAlpha" operator="out"/>
<feColorMatrix type="matrix" values="0 0 0 0 0 0 0 0 0 0 0 0 0 0 0 0 0 0 0.25 0"/>
<feBlend mode="normal" in2="BackgroundImageFix" result="effect1_dropShadow_1_6545"/>
<feBlend mode="normal" in="SourceGraphic" in2="effect1_dropShadow_1_6545" result="shape"/>
</filter>
<filter id="filter10_d_1_6545" x="9.07261" y="380.852" width="10.4294" height="10.5334" filterUnits="userSpaceOnUse" color-interpolation-filters="sRGB">
<feFlood flood-opacity="0" result="BackgroundImageFix"/>
<feColorMatrix in="SourceAlpha" type="matrix" values="0 0 0 0 0 0 0 0 0 0 0 0 0 0 0 0 0 0 127 0" result="hardAlpha"/>
<feOffset dy="4"/>
<feGaussianBlur stdDeviation="2"/>
<feComposite in2="hardAlpha" operator="out"/>
<feColorMatrix type="matrix" values="0 0 0 0 0 0 0 0 0 0 0 0 0 0 0 0 0 0 0.25 0"/>
<feBlend mode="normal" in2="BackgroundImageFix" result="effect1_dropShadow_1_6545"/>
<feBlend mode="normal" in="SourceGraphic" in2="effect1_dropShadow_1_6545" result="shape"/>
</filter>
<filter id="filter11_d_1_6545" x="35.2394" y="311.634" width="10.7345" height="10.8672" filterUnits="userSpaceOnUse" color-interpolation-filters="sRGB">
<feFlood flood-opacity="0" result="BackgroundImageFix"/>
<feColorMatrix in="SourceAlpha" type="matrix" values="0 0 0 0 0 0 0 0 0 0 0 0 0 0 0 0 0 0 127 0" result="hardAlpha"/>
<feOffset dy="4"/>
<feGaussianBlur stdDeviation="2"/>
<feComposite in2="hardAlpha" operator="out"/>
<feColorMatrix type="matrix" values="0 0 0 0 0 0 0 0 0 0 0 0 0 0 0 0 0 0 0.25 0"/>
<feBlend mode="normal" in2="BackgroundImageFix" result="effect1_dropShadow_1_6545"/>
<feBlend mode="normal" in="SourceGraphic" in2="effect1_dropShadow_1_6545" result="shape"/>
</filter>
<filter id="filter12_d_1_6545" x="-4.86926" y="324.743" width="11.0963" height="10.4893" filterUnits="userSpaceOnUse" color-interpolation-filters="sRGB">
<feFlood flood-opacity="0" result="BackgroundImageFix"/>
<feColorMatrix in="SourceAlpha" type="matrix" values="0 0 0 0 0 0 0 0 0 0 0 0 0 0 0 0 0 0 127 0" result="hardAlpha"/>
<feOffset dy="4"/>
<feGaussianBlur stdDeviation="2"/>
<feComposite in2="hardAlpha" operator="out"/>
<feColorMatrix type="matrix" values="0 0 0 0 0 0 0 0 0 0 0 0 0 0 0 0 0 0 0.25 0"/>
<feBlend mode="normal" in2="BackgroundImageFix" result="effect1_dropShadow_1_6545"/>
<feBlend mode="normal" in="SourceGraphic" in2="effect1_dropShadow_1_6545" result="shape"/>
</filter>
<filter id="filter13_d_1_6545" x="51.4739" y="333.805" width="10.6183" height="10.6057" filterUnits="userSpaceOnUse" color-interpolation-filters="sRGB">
<feFlood flood-opacity="0" result="BackgroundImageFix"/>
<feColorMatrix in="SourceAlpha" type="matrix" values="0 0 0 0 0 0 0 0 0 0 0 0 0 0 0 0 0 0 127 0" result="hardAlpha"/>
<feOffset dy="4"/>
<feGaussianBlur stdDeviation="2"/>
<feComposite in2="hardAlpha" operator="out"/>
<feColorMatrix type="matrix" values="0 0 0 0 0 0 0 0 0 0 0 0 0 0 0 0 0 0 0.25 0"/>
<feBlend mode="normal" in2="BackgroundImageFix" result="effect1_dropShadow_1_6545"/>
<feBlend mode="normal" in="SourceGraphic" in2="effect1_dropShadow_1_6545" result="shape"/>
</filter>
<filter id="filter14_d_1_6545" x="6.61987" y="367.247" width="10.4286" height="10.5278" filterUnits="userSpaceOnUse" color-interpolation-filters="sRGB">
<feFlood flood-opacity="0" result="BackgroundImageFix"/>
<feColorMatrix in="SourceAlpha" type="matrix" values="0 0 0 0 0 0 0 0 0 0 0 0 0 0 0 0 0 0 127 0" result="hardAlpha"/>
<feOffset dy="4"/>
<feGaussianBlur stdDeviation="2"/>
<feComposite in2="hardAlpha" operator="out"/>
<feColorMatrix type="matrix" values="0 0 0 0 0 0 0 0 0 0 0 0 0 0 0 0 0 0 0.25 0"/>
<feBlend mode="normal" in2="BackgroundImageFix" result="effect1_dropShadow_1_6545"/>
<feBlend mode="normal" in="SourceGraphic" in2="effect1_dropShadow_1_6545" result="shape"/>
</filter>
<filter id="filter15_d_1_6545" x="-2.66367" y="394.23" width="10.5414" height="10.6292" filterUnits="userSpaceOnUse" color-interpolation-filters="sRGB">
<feFlood flood-opacity="0" result="BackgroundImageFix"/>
<feColorMatrix in="SourceAlpha" type="matrix" values="0 0 0 0 0 0 0 0 0 0 0 0 0 0 0 0 0 0 127 0" result="hardAlpha"/>
<feOffset dy="4"/>
<feGaussianBlur stdDeviation="2"/>
<feComposite in2="hardAlpha" operator="out"/>
<feColorMatrix type="matrix" values="0 0 0 0 0 0 0 0 0 0 0 0 0 0 0 0 0 0 0.25 0"/>
<feBlend mode="normal" in2="BackgroundImageFix" result="effect1_dropShadow_1_6545"/>
<feBlend mode="normal" in="SourceGraphic" in2="effect1_dropShadow_1_6545" result="shape"/>
</filter>
<filter id="filter16_d_1_6545" x="27.9835" y="314.267" width="10.5811" height="10.6616" filterUnits="userSpaceOnUse" color-interpolation-filters="sRGB">
<feFlood flood-opacity="0" result="BackgroundImageFix"/>
<feColorMatrix in="SourceAlpha" type="matrix" values="0 0 0 0 0 0 0 0 0 0 0 0 0 0 0 0 0 0 127 0" result="hardAlpha"/>
<feOffset dy="4"/>
<feGaussianBlur stdDeviation="2"/>
<feComposite in2="hardAlpha" operator="out"/>
<feColorMatrix type="matrix" values="0 0 0 0 0 0 0 0 0 0 0 0 0 0 0 0 0 0 0.25 0"/>
<feBlend mode="normal" in2="BackgroundImageFix" result="effect1_dropShadow_1_6545"/>
<feBlend mode="normal" in="SourceGraphic" in2="effect1_dropShadow_1_6545" result="shape"/>
</filter>
<filter id="filter17_d_1_6545" x="-9.26491" y="352.245" width="10.5711" height="10.7668" filterUnits="userSpaceOnUse" color-interpolation-filters="sRGB">
<feFlood flood-opacity="0" result="BackgroundImageFix"/>
<feColorMatrix in="SourceAlpha" type="matrix" values="0 0 0 0 0 0 0 0 0 0 0 0 0 0 0 0 0 0 127 0" result="hardAlpha"/>
<feOffset dy="4"/>
<feGaussianBlur stdDeviation="2"/>
<feComposite in2="hardAlpha" operator="out"/>
<feColorMatrix type="matrix" values="0 0 0 0 0 0 0 0 0 0 0 0 0 0 0 0 0 0 0.25 0"/>
<feBlend mode="normal" in2="BackgroundImageFix" result="effect1_dropShadow_1_6545"/>
<feBlend mode="normal" in="SourceGraphic" in2="effect1_dropShadow_1_6545" result="shape"/>
</filter>
<filter id="filter18_d_1_6545" x="-3.46336" y="314.397" width="10.4786" height="10.5676" filterUnits="userSpaceOnUse" color-interpolation-filters="sRGB">
<feFlood flood-opacity="0" result="BackgroundImageFix"/>
<feColorMatrix in="SourceAlpha" type="matrix" values="0 0 0 0 0 0 0 0 0 0 0 0 0 0 0 0 0 0 127 0" result="hardAlpha"/>
<feOffset dy="4"/>
<feGaussianBlur stdDeviation="2"/>
<feComposite in2="hardAlpha" operator="out"/>
<feColorMatrix type="matrix" values="0 0 0 0 0 0 0 0 0 0 0 0 0 0 0 0 0 0 0.25 0"/>
<feBlend mode="normal" in2="BackgroundImageFix" result="effect1_dropShadow_1_6545"/>
<feBlend mode="normal" in="SourceGraphic" in2="effect1_dropShadow_1_6545" result="shape"/>
</filter>
<filter id="filter19_d_1_6545" x="-7.89964" y="346.154" width="10.7966" height="10.8813" filterUnits="userSpaceOnUse" color-interpolation-filters="sRGB">
<feFlood flood-opacity="0" result="BackgroundImageFix"/>
<feColorMatrix in="SourceAlpha" type="matrix" values="0 0 0 0 0 0 0 0 0 0 0 0 0 0 0 0 0 0 127 0" result="hardAlpha"/>
<feOffset dy="4"/>
<feGaussianBlur stdDeviation="2"/>
<feComposite in2="hardAlpha" operator="out"/>
<feColorMatrix type="matrix" values="0 0 0 0 0 0 0 0 0 0 0 0 0 0 0 0 0 0 0.25 0"/>
<feBlend mode="normal" in2="BackgroundImageFix" result="effect1_dropShadow_1_6545"/>
<feBlend mode="normal" in="SourceGraphic" in2="effect1_dropShadow_1_6545" result="shape"/>
</filter>
<filter id="filter20_d_1_6545" x="21.4846" y="362.161" width="10.8434" height="10.5996" filterUnits="userSpaceOnUse" color-interpolation-filters="sRGB">
<feFlood flood-opacity="0" result="BackgroundImageFix"/>
<feColorMatrix in="SourceAlpha" type="matrix" values="0 0 0 0 0 0 0 0 0 0 0 0 0 0 0 0 0 0 127 0" result="hardAlpha"/>
<feOffset dy="4"/>
<feGaussianBlur stdDeviation="2"/>
<feComposite in2="hardAlpha" operator="out"/>
<feColorMatrix type="matrix" values="0 0 0 0 0 0 0 0 0 0 0 0 0 0 0 0 0 0 0.25 0"/>
<feBlend mode="normal" in2="BackgroundImageFix" result="effect1_dropShadow_1_6545"/>
<feBlend mode="normal" in="SourceGraphic" in2="effect1_dropShadow_1_6545" result="shape"/>
</filter>
<filter id="filter21_d_1_6545" x="-3.62152" y="276.969" width="10.5069" height="10.7009" filterUnits="userSpaceOnUse" color-interpolation-filters="sRGB">
<feFlood flood-opacity="0" result="BackgroundImageFix"/>
<feColorMatrix in="SourceAlpha" type="matrix" values="0 0 0 0 0 0 0 0 0 0 0 0 0 0 0 0 0 0 127 0" result="hardAlpha"/>
<feOffset dy="4"/>
<feGaussianBlur stdDeviation="2"/>
<feComposite in2="hardAlpha" operator="out"/>
<feColorMatrix type="matrix" values="0 0 0 0 0 0 0 0 0 0 0 0 0 0 0 0 0 0 0.25 0"/>
<feBlend mode="normal" in2="BackgroundImageFix" result="effect1_dropShadow_1_6545"/>
<feBlend mode="normal" in="SourceGraphic" in2="effect1_dropShadow_1_6545" result="shape"/>
</filter>
<filter id="filter22_d_1_6545" x="-10.0016" y="291.507" width="10.8989" height="10.4519" filterUnits="userSpaceOnUse" color-interpolation-filters="sRGB">
<feFlood flood-opacity="0" result="BackgroundImageFix"/>
<feColorMatrix in="SourceAlpha" type="matrix" values="0 0 0 0 0 0 0 0 0 0 0 0 0 0 0 0 0 0 127 0" result="hardAlpha"/>
<feOffset dy="4"/>
<feGaussianBlur stdDeviation="2"/>
<feComposite in2="hardAlpha" operator="out"/>
<feColorMatrix type="matrix" values="0 0 0 0 0 0 0 0 0 0 0 0 0 0 0 0 0 0 0.25 0"/>
<feBlend mode="normal" in2="BackgroundImageFix" result="effect1_dropShadow_1_6545"/>
<feBlend mode="normal" in="SourceGraphic" in2="effect1_dropShadow_1_6545" result="shape"/>
</filter>
<filter id="filter23_d_1_6545" x="11.7133" y="316.369" width="10.6261" height="10.8225" filterUnits="userSpaceOnUse" color-interpolation-filters="sRGB">
<feFlood flood-opacity="0" result="BackgroundImageFix"/>
<feColorMatrix in="SourceAlpha" type="matrix" values="0 0 0 0 0 0 0 0 0 0 0 0 0 0 0 0 0 0 127 0" result="hardAlpha"/>
<feOffset dy="4"/>
<feGaussianBlur stdDeviation="2"/>
<feComposite in2="hardAlpha" operator="out"/>
<feColorMatrix type="matrix" values="0 0 0 0 0 0 0 0 0 0 0 0 0 0 0 0 0 0 0.25 0"/>
<feBlend mode="normal" in2="BackgroundImageFix" result="effect1_dropShadow_1_6545"/>
<feBlend mode="normal" in="SourceGraphic" in2="effect1_dropShadow_1_6545" result="shape"/>
</filter>
<filter id="filter24_d_1_6545" x="-0.410358" y="307.631" width="10.5618" height="10.6575" filterUnits="userSpaceOnUse" color-interpolation-filters="sRGB">
<feFlood flood-opacity="0" result="BackgroundImageFix"/>
<feColorMatrix in="SourceAlpha" type="matrix" values="0 0 0 0 0 0 0 0 0 0 0 0 0 0 0 0 0 0 127 0" result="hardAlpha"/>
<feOffset dy="4"/>
<feGaussianBlur stdDeviation="2"/>
<feComposite in2="hardAlpha" operator="out"/>
<feColorMatrix type="matrix" values="0 0 0 0 0 0 0 0 0 0 0 0 0 0 0 0 0 0 0.25 0"/>
<feBlend mode="normal" in2="BackgroundImageFix" result="effect1_dropShadow_1_6545"/>
<feBlend mode="normal" in="SourceGraphic" in2="effect1_dropShadow_1_6545" result="shape"/>
</filter>
<filter id="filter25_d_1_6545" x="-376.365" y="-29.5769" width="726.005" height="726" filterUnits="userSpaceOnUse" color-interpolation-filters="sRGB">
<feFlood flood-opacity="0" result="BackgroundImageFix"/>
<feColorMatrix in="SourceAlpha" type="matrix" values="0 0 0 0 0 0 0 0 0 0 0 0 0 0 0 0 0 0 127 0" result="hardAlpha"/>
<feOffset dy="4"/>
<feGaussianBlur stdDeviation="2"/>
<feComposite in2="hardAlpha" operator="out"/>
<feColorMatrix type="matrix" values="0 0 0 0 0 0 0 0 0 0 0 0 0 0 0 0 0 0 0.25 0"/>
<feBlend mode="normal" in2="BackgroundImageFix" result="effect1_dropShadow_1_6545"/>
<feBlend mode="normal" in="SourceGraphic" in2="effect1_dropShadow_1_6545" result="shape"/>
</filter>
<filter id="filter26_d_1_6545" x="-340.169" y="-28.3232" width="726.005" height="726" filterUnits="userSpaceOnUse" color-interpolation-filters="sRGB">
<feFlood flood-opacity="0" result="BackgroundImageFix"/>
<feColorMatrix in="SourceAlpha" type="matrix" values="0 0 0 0 0 0 0 0 0 0 0 0 0 0 0 0 0 0 127 0" result="hardAlpha"/>
<feOffset dy="4"/>
<feGaussianBlur stdDeviation="2"/>
<feComposite in2="hardAlpha" operator="out"/>
<feColorMatrix type="matrix" values="0 0 0 0 0 0 0 0 0 0 0 0 0 0 0 0 0 0 0.25 0"/>
<feBlend mode="normal" in2="BackgroundImageFix" result="effect1_dropShadow_1_6545"/>
<feBlend mode="normal" in="SourceGraphic" in2="effect1_dropShadow_1_6545" result="shape"/>
</filter>
<filter id="filter27_d_1_6545" x="-265.76" y="-30.0002" width="726.005" height="726" filterUnits="userSpaceOnUse" color-interpolation-filters="sRGB">
<feFlood flood-opacity="0" result="BackgroundImageFix"/>
<feColorMatrix in="SourceAlpha" type="matrix" values="0 0 0 0 0 0 0 0 0 0 0 0 0 0 0 0 0 0 127 0" result="hardAlpha"/>
<feOffset dy="4"/>
<feGaussianBlur stdDeviation="2"/>
<feComposite in2="hardAlpha" operator="out"/>
<feColorMatrix type="matrix" values="0 0 0 0 0 0 0 0 0 0 0 0 0 0 0 0 0 0 0.25 0"/>
<feBlend mode="normal" in2="BackgroundImageFix" result="effect1_dropShadow_1_6545"/>
<feBlend mode="normal" in="SourceGraphic" in2="effect1_dropShadow_1_6545" result="shape"/>
</filter>
<filter id="filter28_d_1_6545" x="-267.137" y="207.31" width="324.233" height="324.22" filterUnits="userSpaceOnUse" color-interpolation-filters="sRGB">
<feFlood flood-opacity="0" result="BackgroundImageFix"/>
<feColorMatrix in="SourceAlpha" type="matrix" values="0 0 0 0 0 0 0 0 0 0 0 0 0 0 0 0 0 0 127 0" result="hardAlpha"/>
<feOffset dy="4"/>
<feGaussianBlur stdDeviation="2"/>
<feComposite in2="hardAlpha" operator="out"/>
<feColorMatrix type="matrix" values="0 0 0 0 0 0 0 0 0 0 0 0 0 0 0 0 0 0 0.25 0"/>
<feBlend mode="normal" in2="BackgroundImageFix" result="effect1_dropShadow_1_6545"/>
<feBlend mode="normal" in="SourceGraphic" in2="effect1_dropShadow_1_6545" result="shape"/>
</filter>
<filter id="filter29_d_1_6545" x="-249.496" y="94.0371" width="324.233" height="324.22" filterUnits="userSpaceOnUse" color-interpolation-filters="sRGB">
<feFlood flood-opacity="0" result="BackgroundImageFix"/>
<feColorMatrix in="SourceAlpha" type="matrix" values="0 0 0 0 0 0 0 0 0 0 0 0 0 0 0 0 0 0 127 0" result="hardAlpha"/>
<feOffset dy="4"/>
<feGaussianBlur stdDeviation="2"/>
<feComposite in2="hardAlpha" operator="out"/>
<feColorMatrix type="matrix" values="0 0 0 0 0 0 0 0 0 0 0 0 0 0 0 0 0 0 0.25 0"/>
<feBlend mode="normal" in2="BackgroundImageFix" result="effect1_dropShadow_1_6545"/>
<feBlend mode="normal" in="SourceGraphic" in2="effect1_dropShadow_1_6545" result="shape"/>
</filter>
<filter id="filter30_d_1_6545" x="-180.27" y="163.144" width="185.779" height="185.901" filterUnits="userSpaceOnUse" color-interpolation-filters="sRGB">
<feFlood flood-opacity="0" result="BackgroundImageFix"/>
<feColorMatrix in="SourceAlpha" type="matrix" values="0 0 0 0 0 0 0 0 0 0 0 0 0 0 0 0 0 0 127 0" result="hardAlpha"/>
<feOffset dy="4"/>
<feGaussianBlur stdDeviation="2"/>
<feComposite in2="hardAlpha" operator="out"/>
<feColorMatrix type="matrix" values="0 0 0 0 0 0 0 0 0 0 0 0 0 0 0 0 0 0 0.25 0"/>
<feBlend mode="normal" in2="BackgroundImageFix" result="effect1_dropShadow_1_6545"/>
<feBlend mode="normal" in="SourceGraphic" in2="effect1_dropShadow_1_6545" result="shape"/>
</filter>
<linearGradient id="paint0_linear_1_6545" x1="237.924" y1="846.857" x2="-570.912" y2="43.2668" gradientUnits="userSpaceOnUse">
<stop stop-color="#F4EFEA"/>
<stop offset="0.06" stop-color="#F3EDE8"/>
<stop offset="0.53" stop-color="#EEE3D8"/>
<stop offset="0.99" stop-color="#E3D1BD"/>
</linearGradient>
<linearGradient id="paint1_linear_1_6545" x1="-403.683" y1="180.949" x2="4.33312" y2="588.968" gradientUnits="userSpaceOnUse">
<stop stop-color="#F4E0AE"/>
<stop offset="0.2" stop-color="#EACD8C"/>
<stop offset="0.32" stop-color="#E5C47C"/>
<stop offset="0.36" stop-color="#E0BE77"/>
<stop offset="0.42" stop-color="#D2AD69"/>
<stop offset="0.5" stop-color="#BC9152"/>
<stop offset="0.54" stop-color="#AA7A40"/>
<stop offset="0.62" stop-color="#C09657"/>
<stop offset="0.72" stop-color="#D4AF6B"/>
<stop offset="0.8" stop-color="#E1BF78"/>
<stop offset="0.87" stop-color="#E5C47C"/>
</linearGradient>
<linearGradient id="paint2_linear_1_6545" x1="-286.333" y1="56.6114" x2="147.34" y2="490.287" gradientUnits="userSpaceOnUse">
<stop stop-color="#F4E0AE"/>
<stop offset="0.2" stop-color="#EACD8C"/>
<stop offset="0.32" stop-color="#E5C47C"/>
<stop offset="0.36" stop-color="#E0BE77"/>
<stop offset="0.42" stop-color="#D2AD69"/>
<stop offset="0.5" stop-color="#BC9152"/>
<stop offset="0.54" stop-color="#AA7A40"/>
<stop offset="0.62" stop-color="#C09657"/>
<stop offset="0.72" stop-color="#D4AF6B"/>
<stop offset="0.8" stop-color="#E1BF78"/>
<stop offset="0.87" stop-color="#E5C47C"/>
</linearGradient>
<linearGradient id="paint3_linear_1_6545" x1="-382.905" y1="156.873" x2="50.7679" y2="590.549" gradientUnits="userSpaceOnUse">
<stop stop-color="#F4E0AE"/>
<stop offset="0.2" stop-color="#EACD8C"/>
<stop offset="0.32" stop-color="#E5C47C"/>
<stop offset="0.36" stop-color="#E0BE77"/>
<stop offset="0.42" stop-color="#D2AD69"/>
<stop offset="0.5" stop-color="#BC9152"/>
<stop offset="0.54" stop-color="#AA7A40"/>
<stop offset="0.62" stop-color="#C09657"/>
<stop offset="0.72" stop-color="#D4AF6B"/>
<stop offset="0.8" stop-color="#E1BF78"/>
<stop offset="0.87" stop-color="#E5C47C"/>
</linearGradient>
<linearGradient id="paint4_linear_1_6545" x1="-498.955" y1="220.033" x2="-65.2824" y2="653.708" gradientUnits="userSpaceOnUse">
<stop stop-color="#F4E0AE"/>
<stop offset="0.2" stop-color="#EACD8C"/>
<stop offset="0.32" stop-color="#E5C47C"/>
<stop offset="0.36" stop-color="#E0BE77"/>
<stop offset="0.42" stop-color="#D2AD69"/>
<stop offset="0.5" stop-color="#BC9152"/>
<stop offset="0.54" stop-color="#AA7A40"/>
<stop offset="0.62" stop-color="#C09657"/>
<stop offset="0.72" stop-color="#D4AF6B"/>
<stop offset="0.8" stop-color="#E1BF78"/>
<stop offset="0.87" stop-color="#E5C47C"/>
</linearGradient>
<linearGradient id="paint5_linear_1_6545" x1="-250.032" y1="57.8126" x2="183.641" y2="491.489" gradientUnits="userSpaceOnUse">
<stop stop-color="#F4E0AE"/>
<stop offset="0.2" stop-color="#EACD8C"/>
<stop offset="0.32" stop-color="#E5C47C"/>
<stop offset="0.36" stop-color="#E0BE77"/>
<stop offset="0.42" stop-color="#D2AD69"/>
<stop offset="0.5" stop-color="#BC9152"/>
<stop offset="0.54" stop-color="#AA7A40"/>
<stop offset="0.62" stop-color="#C09657"/>
<stop offset="0.72" stop-color="#D4AF6B"/>
<stop offset="0.8" stop-color="#E1BF78"/>
<stop offset="0.87" stop-color="#E5C47C"/>
</linearGradient>
<linearGradient id="paint6_linear_1_6545" x1="-175.716" y1="56.175" x2="257.957" y2="489.851" gradientUnits="userSpaceOnUse">
<stop stop-color="#F4E0AE"/>
<stop offset="0.2" stop-color="#EACD8C"/>
<stop offset="0.32" stop-color="#E5C47C"/>
<stop offset="0.36" stop-color="#E0BE77"/>
<stop offset="0.42" stop-color="#D2AD69"/>
<stop offset="0.5" stop-color="#BC9152"/>
<stop offset="0.54" stop-color="#AA7A40"/>
<stop offset="0.62" stop-color="#C09657"/>
<stop offset="0.72" stop-color="#D4AF6B"/>
<stop offset="0.8" stop-color="#E1BF78"/>
<stop offset="0.87" stop-color="#E5C47C"/>
</linearGradient>
<linearGradient id="paint7_linear_1_6545" x1="-424.993" y1="204.617" x2="8.6803" y2="638.293" gradientUnits="userSpaceOnUse">
<stop stop-color="#F4E0AE"/>
<stop offset="0.2" stop-color="#EACD8C"/>
<stop offset="0.32" stop-color="#E5C47C"/>
<stop offset="0.36" stop-color="#E0BE77"/>
<stop offset="0.42" stop-color="#D2AD69"/>
<stop offset="0.5" stop-color="#BC9152"/>
<stop offset="0.54" stop-color="#AA7A40"/>
<stop offset="0.62" stop-color="#C09657"/>
<stop offset="0.72" stop-color="#D4AF6B"/>
<stop offset="0.8" stop-color="#E1BF78"/>
<stop offset="0.87" stop-color="#E5C47C"/>
</linearGradient>
<radialGradient id="paint8_radial_1_6545" cx="0" cy="0" r="1" gradientUnits="userSpaceOnUse" gradientTransform="translate(-47.6922 308.063) rotate(135) scale(17.831 222.888)">
<stop stop-color="#8C4703"/>
<stop offset="0.09" stop-color="#7B3F03"/>
<stop offset="0.49" stop-color="#391D01"/>
<stop offset="0.78" stop-color="#100800"/>
<stop offset="0.93"/>
</radialGradient>
<radialGradient id="paint9_radial_1_6545" cx="0" cy="0" r="1" gradientUnits="userSpaceOnUse" gradientTransform="translate(-32.6477 197.377) rotate(135) scale(17.831 222.888)">
<stop stop-color="#8C4703"/>
<stop offset="0.09" stop-color="#7B3F03"/>
<stop offset="0.49" stop-color="#391D01"/>
<stop offset="0.78" stop-color="#100800"/>
<stop offset="0.93"/>
</radialGradient>
<radialGradient id="paint10_radial_1_6545" cx="0" cy="0" r="1" gradientUnits="userSpaceOnUse" gradientTransform="translate(-178.888 357.275) rotate(135) scale(11.1472 124.848)">
<stop stop-color="#F9EEB8"/>
<stop offset="0.04" stop-color="#EBE1AE"/>
<stop offset="0.23" stop-color="#A59D7A"/>
<stop offset="0.41" stop-color="#6A654E"/>
<stop offset="0.58" stop-color="#3C3A2D"/>
<stop offset="0.72" stop-color="#1B1A14"/>
<stop offset="0.85" stop-color="#070705"/>
<stop offset="0.93"/>
</radialGradient>
</defs>
</svg>
